<?xml version="1.0" encoding="UTF-8" standalone="no"?>
<!-- Created with Inkscape (http://www.inkscape.org/) -->

<svg
   xmlns:dc="http://purl.org/dc/elements/1.1/"
   xmlns:cc="http://creativecommons.org/ns#"
   xmlns:rdf="http://www.w3.org/1999/02/22-rdf-syntax-ns#"
   xmlns:svg="http://www.w3.org/2000/svg"
   xmlns="http://www.w3.org/2000/svg"
   version="1.0"
   width="12"
   height="12"
   id="svg2">
  <metadata
     id="metadata9">
    <rdf:RDF>
      <cc:Work
         rdf:about="">
        <dc:format>image/svg+xml</dc:format>
        <dc:type
           rdf:resource="http://purl.org/dc/dcmitype/StillImage" />
        <dc:title></dc:title>
      </cc:Work>
    </rdf:RDF>
  </metadata>
  <defs
     id="defs4" />
  <path
     d="m 1,4 0,0.5 0,6 0,0.5 0.5,0 6,0 L 8,11 8,10.5 8,4.5 8,4 7.5,4 1.5,4 1,4 z m 1,1 5,0 0,5 -5,0 0,-5 z"
     id="rect3170"
     style="font-size:medium;font-style:normal;font-variant:normal;font-weight:normal;font-stretch:normal;text-indent:0;text-align:start;text-decoration:none;line-height:normal;letter-spacing:normal;word-spacing:normal;text-transform:none;direction:ltr;block-progression:tb;writing-mode:lr-tb;text-anchor:start;baseline-shift:baseline;color:#000000;fill:#000000;fill-opacity:1;fill-rule:nonzero;stroke:none;stroke-width:0.99999994;marker:none;visibility:visible;display:inline;overflow:visible;enable-background:accumulate;font-family:Sans;-inkscape-font-specification:Sans" />
  <path
     d="M 4,2.5 5,3.5 5.25,4.25 2.75,6.5 5.5,9.25 7.75,6.75 8.5,7 9.5,8 11,6.5 11,1 5.5,1 4,2.5 z"
     id="path2395"
     style="fill:#000000;fill-opacity:1;fill-rule:evenodd;stroke:none" />
  <path
     d="M 6,2 10,2 10,6 9.5,6.75 8.25,4.75 5.25,8 4,6.75 7.25,3.75 5.25,2.5 6,2 z"
     id="path2398"
     style="fill:#ffffff;fill-opacity:1;fill-rule:evenodd;stroke:none" />
</svg>
